<?xml version="1.0" encoding="utf-8"?>
<!-- Generator: Adobe Illustrator 25.2.1, SVG Export Plug-In . SVG Version: 6.00 Build 0)  -->
<svg version="1.1" id="Capa_1" xmlns="http://www.w3.org/2000/svg" xmlns:xlink="http://www.w3.org/1999/xlink" x="0px" y="0px"
	 viewBox="0 0 50 50" style="enable-background:new 0 0 50 50;" xml:space="preserve">
<style type="text/css">
	.st0{fill:#532E88;stroke:#C9AAD1;stroke-width:0.25;stroke-miterlimit:100;}
</style>
<rect x="17.88" y="17.68" class="st0" width="14.25" height="14.64"/>
<path class="st0" d="M16.38,24.8v0.39c0,3.93-3.19,7.12-7.12,7.12h0c-3.93,0-7.12-3.19-7.12-7.12v-7.51h7.12
	C13.19,17.68,16.38,20.87,16.38,24.8z"/>
<path class="st0" d="M47.87,32.31L47.87,32.31c-7.87,0-14.25-6.38-14.25-14.25v-0.39h14.25V32.31z"/>
<path class="st0" d="M33.62,8.79V8.4c0-3.93,3.19-7.12,7.12-7.12h0c3.93,0,7.12,3.19,7.12,7.12v7.51h-7.12
	C36.81,15.91,33.62,12.72,33.62,8.79z"/>
<path class="st0" d="M32.12,15.91H16.77c-8.08,0-14.64-6.55-14.64-14.64v0h15.36C25.57,1.27,32.12,7.83,32.12,15.91L32.12,15.91z"/>
<path class="st0" d="M47.81,48.73H25.03c-3.98,0-7.21-3.23-7.21-7.21v0c0-4.1,3.32-7.42,7.42-7.42h14.73c4.33,0,7.84,3.51,7.84,7.84
	V48.73z"/>
<path class="st0" d="M9.26,48.73L9.26,48.73c-3.93,0-7.12-3.19-7.12-7.12v-0.39c0-3.93,3.19-7.12,7.12-7.12h0
	c3.93,0,7.12,3.19,7.12,7.12v0.39C16.38,45.54,13.19,48.73,9.26,48.73z"/>
</svg>
